<svg width="18" height="18" viewBox="0 0 18 18" fill="none" xmlns="http://www.w3.org/2000/svg">
<path d="M9.07633 4.4917C6.57633 4.4917 4.58414 6.52295 4.58414 8.98389C4.58414 11.4839 6.57633 13.4761 9.07633 13.4761C11.5373 13.4761 13.5685 11.4839 13.5685 8.98389C13.5685 6.52295 11.5373 4.4917 9.07633 4.4917ZM9.07633 11.9136C7.47477 11.9136 6.14664 10.6245 6.14664 8.98389C6.14664 7.38232 7.43571 6.09326 9.07633 6.09326C10.6779 6.09326 11.967 7.38232 11.967 8.98389C11.967 10.6245 10.6779 11.9136 9.07633 11.9136ZM14.7795 4.33545C14.7795 3.74951 14.3107 3.28076 13.7248 3.28076C13.1388 3.28076 12.6701 3.74951 12.6701 4.33545C12.6701 4.92139 13.1388 5.39014 13.7248 5.39014C14.3107 5.39014 14.7795 4.92139 14.7795 4.33545ZM17.7482 5.39014C17.6701 3.98389 17.3576 2.73389 16.342 1.71826C15.3263 0.702637 14.0763 0.390137 12.6701 0.312012C11.2248 0.233887 6.88883 0.233887 5.44352 0.312012C4.03727 0.390137 2.82633 0.702637 1.77164 1.71826C0.756018 2.73389 0.443518 3.98389 0.365393 5.39014C0.287268 6.83545 0.287268 11.1714 0.365393 12.6167C0.443518 14.0229 0.756018 15.2339 1.77164 16.2886C2.82633 17.3042 4.03727 17.6167 5.44352 17.6948C6.88883 17.7729 11.2248 17.7729 12.6701 17.6948C14.0763 17.6167 15.3263 17.3042 16.342 16.2886C17.3576 15.2339 17.6701 14.0229 17.7482 12.6167C17.8263 11.1714 17.8263 6.83545 17.7482 5.39014ZM15.8732 14.1401C15.5998 14.9214 14.9748 15.5073 14.2326 15.8198C13.0607 16.2886 10.3263 16.1714 9.07633 16.1714C7.78727 16.1714 5.05289 16.2886 3.92008 15.8198C3.13883 15.5073 2.55289 14.9214 2.24039 14.1401C1.77164 13.0073 1.88883 10.2729 1.88883 8.98389C1.88883 7.73389 1.77164 4.99951 2.24039 3.82764C2.55289 3.08545 3.13883 2.49951 3.92008 2.18701C5.05289 1.71826 7.78727 1.83545 9.07633 1.83545C10.3263 1.83545 13.0607 1.71826 14.2326 2.18701C14.9748 2.46045 15.5607 3.08545 15.8732 3.82764C16.342 4.99951 16.2248 7.73389 16.2248 8.98389C16.2248 10.2729 16.342 13.0073 15.8732 14.1401Z" fill="white"/>
</svg>
