<svg width="21" height="18" viewBox="0 0 21 18" fill="none" xmlns="http://www.w3.org/2000/svg">
<path d="M18.006 4.92139C18.7873 4.33545 19.4904 3.63232 20.0373 2.81201C19.3341 3.12451 18.5138 3.35889 17.6935 3.43701C18.5529 2.9292 19.1779 2.14795 19.4904 1.17139C18.7091 1.64014 17.8107 1.9917 16.9123 2.18701C16.131 1.3667 15.0763 0.897949 13.9045 0.897949C11.6388 0.897949 9.80289 2.73389 9.80289 4.99951C9.80289 5.31201 9.84196 5.62451 9.92008 5.93701C6.52164 5.7417 3.47477 4.10107 1.44352 1.64014C1.09196 2.22607 0.896643 2.9292 0.896643 3.71045C0.896643 5.1167 1.59977 6.3667 2.73258 7.10889C2.06852 7.06982 1.40446 6.91357 0.85758 6.60107V6.64014C0.85758 8.63232 2.26383 10.2729 4.13883 10.6636C3.82633 10.7417 3.43571 10.8198 3.08414 10.8198C2.81071 10.8198 2.57633 10.7808 2.30289 10.7417C2.81071 12.3823 4.33414 13.5542 6.13102 13.5933C4.72477 14.687 2.96696 15.3511 1.05289 15.3511C0.70133 15.3511 0.38883 15.312 0.0763302 15.2729C1.87321 16.4448 4.02164 17.1089 6.36539 17.1089C13.9045 17.1089 18.006 10.8979 18.006 5.46826C18.006 5.27295 18.006 5.1167 18.006 4.92139Z" fill="white"/>
</svg>
