<svg width="151" height="150" viewBox="0 0 151 150" fill="none" xmlns="http://www.w3.org/2000/svg">
<path d="M146.792 69.0789C145.386 69.0789 140.043 71.0526 137.23 72.1805C136.949 71.0526 135.824 70.2068 134.418 70.2068C133.012 70.2068 131.606 71.0526 131.606 72.1805L126.262 71.3346C125.419 59.7744 120.919 49.6241 113.888 41.4474L116.982 36.9361C117.826 37.5 119.513 37.5 120.357 36.3722C121.482 35.2444 121.763 33.8346 120.919 32.9887C123.731 31.8609 129.075 29.6053 129.918 28.4774C131.043 27.0677 130.2 24.2481 128.231 21.9925C125.981 20.0188 123.169 19.1729 121.763 20.3008C120.638 21.1466 118.388 26.5038 117.263 29.3233C116.419 28.7594 114.732 29.0414 113.888 29.8872C112.763 31.015 112.482 32.4248 113.326 33.2707L108.826 36.3722C100.67 29.3233 90.2649 24.812 79.0157 23.9662L78.172 18.609C79.2969 18.3271 80.1406 17.1992 80.1406 15.7895C80.1406 14.3797 79.2969 13.2519 78.172 12.9699C79.2969 10.1504 81.2655 4.79323 81.2655 3.38346C80.9843 1.40977 78.4532 0 75.3597 0C72.2662 0 69.7351 1.40977 69.4539 3.38346C69.4539 4.79323 71.4225 10.1504 72.5474 12.9699C71.4225 13.2519 70.5788 14.3797 70.5788 15.7895C70.5788 17.1992 71.4225 18.609 72.5474 18.609L71.7037 23.9662C60.1733 24.812 50.049 29.3233 41.8933 36.3722L37.3936 33.2707C37.956 32.4248 37.956 30.7331 36.8311 29.8872C35.7062 28.7594 34.3 28.4774 33.4563 29.3233C32.3314 26.5038 30.0816 21.4286 28.9567 20.3008C27.5505 19.1729 24.7382 20.0188 22.7696 22.2744C20.5197 24.2481 19.676 27.0677 20.801 28.7594C21.6447 29.8872 26.988 32.1429 29.8004 33.2707C29.2379 34.1165 29.5191 35.8083 30.3628 36.6541C31.4877 37.782 32.8939 38.0639 33.7376 37.2181L36.8311 41.7293C29.8004 49.906 25.3007 60.3384 24.457 71.6165L19.1136 72.4624C18.8324 71.3346 17.7074 70.4887 16.3013 70.4887C14.8951 70.4887 13.7702 71.3346 13.489 72.4624C10.6767 71.3346 5.33329 69.3609 3.92714 69.3609C1.95852 69.6429 0.552368 72.1805 0.552368 75.282C0.552368 78.3835 1.95852 80.9211 3.92714 81.203C5.33329 81.203 10.6767 79.2293 13.489 78.1015C13.7702 79.2293 14.8951 80.0752 16.3013 80.0752C17.7074 80.0752 19.1136 79.2293 19.1136 78.1015L24.457 78.9474C25.3007 90.5075 29.8004 100.658 36.8311 108.835L34.0188 113.064C33.1751 112.5 31.4877 112.5 30.644 113.628C29.5191 114.756 29.2379 116.165 30.0816 117.011C27.2693 118.139 22.2071 120.395 21.0822 121.523C19.9573 122.932 20.801 125.752 22.7696 128.008C25.0194 130.263 27.8317 131.109 29.2379 129.699C30.3628 128.853 32.6127 123.496 33.7376 120.677C34.5813 121.241 36.2687 120.959 37.1123 120.113C38.2373 118.985 38.5185 117.575 37.6748 116.729L42.1745 113.628C50.3302 120.677 60.7357 125.188 71.9849 126.034L72.8286 131.391C71.7037 131.673 70.86 132.801 70.86 134.211C70.86 135.62 71.7037 136.748 72.8286 137.03C71.7037 139.85 69.7351 145.207 69.7351 146.617C70.0163 148.59 72.5474 150 75.6409 150C78.7345 150 81.2656 148.59 81.5468 146.617C81.5468 145.207 79.5782 139.85 78.4532 137.03C79.5782 136.748 80.4219 135.62 80.4219 134.211C80.4219 132.801 79.5782 131.391 78.4532 131.391L79.2969 126.034C90.8274 125.188 100.952 120.677 109.107 113.628L113.607 116.729C113.045 117.575 113.045 119.267 114.17 120.113C115.294 121.241 116.701 121.523 117.544 120.677C118.669 123.496 120.919 128.853 122.044 129.699C123.45 130.827 126.262 129.981 128.512 128.008C130.762 125.752 131.606 122.932 130.2 121.523C129.356 120.395 124.013 118.139 121.2 117.011C121.763 116.165 121.482 114.474 120.638 113.628C119.513 112.5 118.107 112.218 117.263 113.064L114.17 108.553C121.2 100.376 125.7 89.9436 126.544 78.6654L131.887 77.8196C132.168 78.9474 133.293 79.7932 134.699 79.7932C136.106 79.7932 137.23 78.9474 137.512 77.8196C140.324 78.9474 145.667 80.9211 147.074 80.9211C149.042 80.6391 150.448 78.1015 150.448 75C149.886 72.1805 148.48 69.3609 146.792 69.0789ZM31.4877 76.9737C30.3628 76.9737 29.5191 76.1278 29.5191 75C29.5191 73.8722 30.3628 73.0263 31.4877 73.0263C32.6127 73.0263 33.4563 73.8722 33.4563 75C33.4563 76.1278 32.6127 76.9737 31.4877 76.9737ZM104.889 42.5752C105.733 41.7293 106.858 41.7293 107.701 42.5752C108.545 43.4211 108.545 44.5489 107.701 45.3947C106.858 46.2406 105.733 46.2406 104.889 45.3947C104.326 44.5489 104.326 43.4211 104.889 42.5752ZM75.3597 29.3233C76.4846 29.3233 77.3283 30.1692 77.3283 31.297C77.3283 32.4248 76.4846 33.2707 75.3597 33.2707C74.2348 33.2707 73.3911 32.4248 73.3911 31.297C73.3911 30.1692 74.2348 29.3233 75.3597 29.3233ZM43.0182 42.5752C43.8619 41.7293 44.9868 41.7293 45.8305 42.5752C46.6742 43.4211 46.6742 44.5489 45.8305 45.3947C44.9868 46.2406 43.8619 46.2406 43.0182 45.3947C42.4557 44.5489 42.4557 43.4211 43.0182 42.5752ZM48.0803 50.7519L50.3302 53.0075C50.8926 53.5714 51.4551 53.5714 52.0176 53.2895L55.1111 56.391C54.2674 58.3647 55.1111 61.4662 57.6422 64.0038C60.4545 66.8233 64.3917 67.6692 66.0791 65.9774C63.8293 68.2331 62.4231 71.3346 62.4231 74.718V73.8722H51.4551C51.1739 73.8722 50.8926 73.5902 50.8926 73.0263C50.8926 72.4624 51.1739 72.1805 51.4551 72.1805H62.9856V71.8985C62.9856 71.0526 62.1419 70.2068 61.2982 70.2068H50.3302C49.7677 70.2068 48.3616 71.8985 47.5179 73.3083H44.1431C43.8619 72.7444 43.2994 72.1805 42.737 72.1805H39.081C39.6434 64.2857 42.737 56.6729 48.0803 50.7519ZM45.8305 107.425C44.9868 108.271 43.8619 108.271 43.0182 107.425C42.1745 106.579 42.1745 105.451 43.0182 104.605C43.8619 103.759 44.9868 103.759 45.8305 104.605C46.6742 105.451 46.6742 106.579 45.8305 107.425ZM48.0803 99.2481C42.737 93.3271 39.3622 85.4323 38.7997 76.9737H42.4557C43.0182 76.9737 43.8619 76.4098 43.8619 75.8459H46.9554C47.7991 77.2556 49.2053 79.2293 49.7677 79.2293H60.7357C61.5794 79.2293 62.4231 78.6654 62.4231 77.8196V77.2556H51.4551C51.1739 77.2556 50.8926 76.9737 50.8926 76.4098C50.8926 75.8459 51.1739 75.5639 51.4551 75.5639H62.9856V74.718C62.9856 78.1015 64.3917 81.203 66.6416 83.4587C64.9542 81.7669 61.0169 82.6128 58.2046 85.4323C55.6736 87.9699 54.8299 91.0714 55.6736 93.0451L52.58 96.1466C52.0176 95.8647 51.1739 95.8647 50.8926 96.4286L48.0803 99.2481ZM75.3597 120.959C74.2348 120.959 73.3911 120.113 73.3911 118.985C73.3911 117.857 74.2348 117.011 75.3597 117.011C76.4846 117.011 77.3283 117.857 77.3283 118.985C77.3283 120.113 76.4846 120.959 75.3597 120.959ZM107.701 107.425C106.858 108.271 105.733 108.271 104.889 107.425C104.045 106.579 104.045 105.451 104.889 104.605C105.733 103.759 106.858 103.759 107.701 104.605C108.545 105.451 108.545 106.579 107.701 107.425ZM102.639 99.2481L100.389 96.9925C99.8268 96.4286 99.2643 96.4286 98.7018 96.7105L95.6083 93.609C96.452 91.6353 95.6083 88.5338 93.0772 85.9962C90.2649 83.1767 86.3277 82.3308 84.6403 84.0226C82.9529 85.7143 83.7966 89.6617 86.6089 92.4812C89.14 95.0188 92.2335 95.8647 94.2022 95.0188L97.2957 98.1203C97.0145 98.6842 97.0145 99.5301 97.5769 99.812L99.8268 102.068C93.9209 107.425 86.3277 110.808 77.8908 111.372V107.707C77.8908 107.143 77.3283 106.297 76.7659 106.297V102.914C77.8908 102.068 79.8594 100.658 79.8594 100.094V89.0978C79.8594 88.2519 79.0157 87.406 78.172 87.406H77.8908V98.9662C77.8908 99.2481 77.6095 99.5301 77.0471 99.5301C76.4846 99.5301 76.2034 99.2481 76.2034 98.9662V87.688H75.3597H74.516V98.9662C74.516 99.2481 74.2348 99.5301 73.6723 99.5301C73.1099 99.5301 72.8286 99.2481 72.8286 98.9662V87.688H72.2662C71.4225 87.688 70.86 88.5338 70.86 89.3797V100.376C70.86 100.94 72.8286 102.35 74.2348 103.195V106.297C73.6723 106.579 73.1099 107.143 73.1099 107.707V111.372C64.6729 110.808 56.7985 107.425 50.8926 102.068L53.1425 99.812C53.705 99.2481 53.705 98.6842 53.4237 98.1203L56.5173 95.0188C58.4859 95.8647 61.5794 95.0188 64.1105 92.4812C66.9228 89.6617 67.7665 85.7143 66.0791 84.0226C68.3289 86.2782 71.4225 87.688 74.7972 87.688C81.828 87.688 87.1714 82.0489 87.1714 75.282C87.1714 68.2331 81.5468 62.8759 74.7972 62.8759C71.4225 62.8759 68.3289 64.2857 66.0791 66.5414C67.7665 64.8496 66.9228 60.9023 64.1105 58.0827C61.5794 55.5451 58.4859 54.6993 56.5173 55.5451L53.4237 52.4436C53.705 51.8797 53.705 51.0338 53.1425 50.7519L50.8926 48.4962C56.7985 43.1391 64.6729 39.7556 73.1099 39.1917V42.8571C73.1099 43.4211 73.6723 44.2669 74.2348 44.2669V47.3684C72.8286 48.2143 70.86 49.6241 70.86 50.188V61.1842C70.86 62.0301 71.4225 62.8759 72.2662 62.8759H72.8286V51.0338C72.8286 50.7519 73.1099 50.4699 73.6723 50.4699C74.2348 50.4699 74.516 50.7519 74.516 51.0338V62.594H75.3597H76.2034V51.0338C76.2034 50.7519 76.4846 50.4699 77.0471 50.4699C77.6095 50.4699 77.8908 50.7519 77.8908 51.0338V62.594H78.172C79.0157 62.594 79.8594 61.7481 79.8594 60.9023V49.906C79.8594 49.3421 78.172 47.9323 76.7659 47.0865V43.703C77.3283 43.4211 77.8908 42.8571 77.8908 42.2932V38.6278C86.3277 39.1917 93.9209 42.5752 99.8268 47.6504L97.5769 49.906C97.0145 50.4699 97.0145 51.0338 97.2957 51.5978L94.2022 54.6992C92.2335 53.8534 89.14 54.6993 86.6089 57.2369C83.7966 60.0564 82.9529 64.0038 84.6403 65.6955C86.3277 67.3872 90.2649 66.5414 93.0772 63.7218C95.6083 61.1842 96.452 58.0827 95.6083 56.109L98.7018 53.0075C99.2643 53.2895 100.108 53.2895 100.389 52.7256L102.639 50.4699C107.982 56.391 111.357 64.0038 111.92 72.4624H108.264C107.701 72.4624 106.858 73.0263 106.858 73.5902H103.483C102.639 72.4624 101.233 70.4887 100.67 70.4887H89.7025C88.8588 70.4887 88.0151 71.3346 88.0151 72.1805V72.4624H99.2643C99.5455 72.4624 99.8268 72.7444 99.8268 73.3083C99.8268 73.8722 99.5455 74.1541 99.2643 74.1541H88.0151V75.5639H99.2643C99.5455 75.5639 99.8268 75.8459 99.8268 76.4098C99.8268 76.9737 99.5455 77.2556 99.2643 77.2556H88.0151V77.8196C88.0151 78.6654 88.8588 79.2293 89.7025 79.2293H100.67C101.233 79.2293 102.639 77.2556 103.483 75.8459H106.576C106.858 76.4098 107.42 76.9737 107.982 76.9737H111.638C111.357 85.7143 107.982 93.3271 102.639 99.2481ZM67.4853 75C67.4853 70.7707 70.86 67.1053 75.3597 67.1053C79.5782 67.1053 83.2342 70.4887 83.2342 75C83.2342 79.2293 79.8594 82.8947 75.3597 82.8947C71.1413 82.8947 67.4853 79.5113 67.4853 75ZM119.232 76.9737C118.107 76.9737 117.263 76.1278 117.263 75C117.263 73.8722 118.107 73.0263 119.232 73.0263C120.357 73.0263 121.2 73.8722 121.2 75C121.2 76.1278 120.357 76.9737 119.232 76.9737Z" fill="#FFD600"/>
</svg>
